<?xml version="1.0" standalone="no"?>
<!DOCTYPE svg PUBLIC "-//W3C//DTD SVG 20010904//EN"
 "http://www.w3.org/TR/2001/REC-SVG-20010904/DTD/svg10.dtd">
<svg version="1.0" xmlns="http://www.w3.org/2000/svg"
 width="150.000000pt" height="150.000000pt" viewBox="0 0 150.000000 150.000000"
 preserveAspectRatio="xMidYMid meet">

<g transform="translate(0.000000,150.000000) scale(0.100000,-0.100000)"
fill="#ffff" stroke="none">
<path d="M616 1255 c-131 -36 -237 -113 -313 -228 -45 -67 -48 -77 -50 -141
-2 -62 -5 -72 -32 -100 -17 -18 -31 -36 -31 -42 0 -5 22 -32 50 -59 39 -38 53
-46 62 -37 19 19 24 15 38 -30 19 -66 44 -110 99 -174 27 -32 48 -60 46 -62
-2 -2 -18 6 -35 18 -47 33 -107 115 -127 171 -20 55 -38 60 -62 18 -13 -24
-12 -31 9 -84 45 -111 175 -224 309 -270 104 -35 182 -41 261 -21 182 47 323
160 379 304 l21 53 -25 27 c-28 30 -37 25 -55 -30 -16 -52 -90 -149 -131 -172
-39 -23 -40 -25 33 65 43 53 88 143 88 177 0 25 10 28 28 10 9 -9 23 -1 62 37
28 27 50 54 50 60 0 6 -15 26 -34 44 -32 31 -33 35 -30 94 4 57 2 67 -33 126
-117 197 -367 303 -577 246z m178 -55 l1 -45 -48 -5 c-26 -4 -50 -4 -52 -1 -3
2 -5 26 -5 53 l0 49 51 -3 52 -3 1 -45z m-124 -16 c0 -46 -3 -55 -15 -50 -25
9 -121 -32 -175 -75 -65 -51 -115 -120 -137 -186 -18 -57 -27 -64 -43 -33 -7
13 -7 20 -1 20 6 0 22 23 36 51 51 100 170 201 269 229 44 12 62 30 31 30 -26
0 -115 -38 -148 -62 -50 -38 -64 -44 -42 -19 23 26 102 69 159 86 22 7 42 18
44 25 6 18 -50 4 -123 -30 -33 -16 -61 -27 -64 -25 -6 7 121 64 157 71 17 3
32 10 32 15 0 5 5 9 10 9 6 0 10 -25 10 -56z m200 31 c43 -9 109 -38 135 -59
11 -9 -9 -3 -45 13 -74 33 -130 47 -130 33 0 -6 28 -20 63 -31 61 -21 157 -78
157 -94 0 -4 -21 6 -47 24 -72 50 -173 84 -173 59 0 -5 8 -10 18 -10 30 0 135
-56 186 -100 56 -46 88 -86 118 -145 11 -22 25 -43 31 -47 7 -4 6 -12 -2 -22
-18 -22 -31 -20 -31 5 0 76 -121 216 -232 269 -70 33 -84 36 -91 18 -3 -7 -6
16 -6 52 0 36 3 60 7 54 4 -6 23 -15 42 -19z m-252 -158 c3 -22 -1 -27 -17
-27 -17 0 -21 6 -21 31 0 24 4 30 18 27 10 -2 18 -14 20 -31z m70 0 c3 -22 -1
-27 -17 -27 -17 0 -21 6 -21 31 0 24 4 30 18 27 10 -2 18 -14 20 -31z m141 16
c-11 -13 -11 -17 -1 -20 6 -3 12 -9 12 -14 0 -5 -11 -3 -25 3 -31 14 -31 22
-2 36 30 15 31 14 16 -5z m-79 -13 c0 -5 -4 -10 -10 -10 -5 0 -10 5 -10 10 0
6 5 10 10 10 6 0 10 -4 10 -10z m193 -7 c-13 -2 -35 -2 -50 0 -16 2 -5 4 22 4
28 0 40 -2 28 -4z m-603 -73 c0 -5 -4 -10 -10 -10 -5 0 -10 5 -10 10 0 6 5 10
10 10 6 0 10 -4 10 -10z m681 0 c18 -10 19 -23 19 -185 0 -110 -4 -175 -10
-175 -5 0 -11 15 -11 33 -1 17 -4 93 -8 167 l-6 135 -254 3 c-140 1 -258 -1
-263 -6 -5 -5 -11 -80 -14 -167 -3 -88 -7 -161 -9 -164 -13 -13 -18 23 -23
169 -4 145 -3 162 13 180 17 19 31 20 282 20 163 0 272 -4 284 -10z m149 0 c0
-5 -4 -10 -10 -10 -5 0 -10 5 -10 10 0 6 5 10 10 10 6 0 10 -4 10 -10z m-773
-97 c-3 -10 -5 -4 -5 12 0 17 2 24 5 18 2 -7 2 -21 0 -30z m245 -3 c25 -26 29
-36 24 -63 -9 -48 -48 -77 -102 -77 l-44 0 0 85 0 85 46 0 c37 0 51 -5 76 -30z
m173 15 c0 -11 -99 -20 -122 -11 -8 3 -11 11 -8 16 8 14 130 9 130 -5z m64
-38 c8 -26 17 -47 21 -47 3 0 14 23 24 50 10 28 24 50 32 50 18 0 18 -5 -5
-65 -16 -43 -23 -50 -48 -53 -28 -3 -31 1 -51 53 -26 68 -26 67 -5 63 10 -2
23 -22 32 -51z m218 1 c-3 -7 -5 -2 -5 12 0 14 2 19 5 13 2 -7 2 -19 0 -25z
m-687 -26 c0 -4 -9 -8 -19 -8 -15 0 -17 3 -9 13 10 12 28 9 28 -5z m378 -4
c-3 -8 -22 -13 -48 -13 -26 0 -45 5 -47 13 -3 8 10 12 47 12 37 0 50 -4 48
-12z m322 -18 c0 -21 -24 -28 -35 -10 -8 14 3 30 21 30 8 0 14 -9 14 -20z
m-783 -22 c18 -18 33 -37 33 -43 0 -6 -16 -26 -35 -45 l-35 -34 -35 34 c-19
19 -35 38 -35 44 0 10 60 76 69 76 3 0 20 -14 38 -32z m906 -80 l-37 -38 -38
37 -38 37 37 38 37 38 38 -37 38 -37 -37 -38z m-418 47 c0 -11 -99 -20 -122
-11 -8 3 -11 11 -8 16 8 14 130 9 130 -5z m135 0 c0 -5 -25 -11 -55 -13 -45
-2 -55 0 -55 13 0 13 10 15 55 13 30 -2 55 -7 55 -13z m-553 -72 c-3 -10 -5
-4 -5 12 0 17 2 24 5 18 2 -7 2 -21 0 -30z m363 12 c0 -13 -17 -15 -117 -13
-82 2 -118 7 -121 16 -3 9 25 12 117 12 102 0 121 -2 121 -15z m70 0 c0 -8 -7
-15 -15 -15 -8 0 -15 7 -15 15 0 8 7 15 15 15 8 0 15 -7 15 -15z m35 5 c3 -5
1 -10 -4 -10 -6 0 -11 5 -11 10 0 6 2 10 4 10 3 0 8 -4 11 -10z m245 -60 c0
-11 -6 -20 -13 -20 -19 0 -27 10 -20 26 8 21 33 17 33 -6z m-702 -7 c-2 -10
-10 -18 -18 -18 -8 0 -16 8 -18 18 -2 12 3 17 18 17 15 0 20 -5 18 -17z m689
-70 c-3 -10 -5 -4 -5 12 0 17 2 24 5 18 2 -7 2 -21 0 -30z m-59 -5 l-3 -33
-284 -3 c-301 -2 -311 -1 -311 44 l0 24 301 0 300 0 -3 -32z m-221 -92 c4 -8
19 -16 32 -18 14 -1 26 -9 29 -15 3 -10 -28 -13 -133 -13 -105 0 -136 3 -133
13 3 6 15 13 27 15 12 2 25 10 28 18 7 20 139 20 150 0z m141 7 c-10 -2 -26
-2 -35 0 -10 3 -2 5 17 5 19 0 27 -2 18 -5z m-98 -95 c66 22 120 37 120 34 0
-4 -5 -14 -10 -22 -7 -11 -2 -21 22 -41 l31 -26 -84 -30 c-46 -17 -110 -39
-143 -49 l-59 -18 -111 38 c-61 21 -122 43 -135 48 l-24 9 26 27 c18 18 25 34
21 48 -5 20 1 19 110 -19 l115 -39 121 40z"/>
<path d="M720 1195 c0 -22 4 -26 23 -23 14 2 22 10 22 23 0 13 -8 21 -22 23
-19 3 -23 -1 -23 -23z m30 5 c0 -5 -4 -10 -10 -10 -5 0 -10 5 -10 10 0 6 5 10
10 10 6 0 10 -4 10 -10z"/>
<path d="M590 1061 c0 -12 5 -21 10 -21 6 0 10 6 10 14 0 8 -4 18 -10 21 -5 3
-10 -3 -10 -14z"/>
<path d="M660 1061 c0 -12 5 -21 10 -21 6 0 10 6 10 14 0 8 -4 18 -10 21 -5 3
-10 -3 -10 -14z"/>
<path d="M555 846 c-9 -48 -3 -71 20 -74 47 -7 79 54 46 87 -33 33 -59 27 -66
-13z"/>
<path d="M276 762 c-15 -18 -15 -20 2 -35 14 -13 21 -14 30 -5 16 16 15 33 -1
47 -11 8 -18 7 -31 -7z m24 -18 c0 -8 -5 -12 -10 -9 -6 4 -8 11 -5 16 9 14 15
11 15 -7z"/>
<path d="M1177 762 c-16 -18 -16 -20 1 -35 18 -16 20 -16 35 1 16 18 16 20 -1
35 -18 16 -20 16 -35 -1z m27 -23 c-3 -5 -10 -7 -15 -3 -5 3 -7 10 -3 15 3 5
10 7 15 3 5 -3 7 -10 3 -15z"/>
<path d="M385 630 c3 -5 8 -10 11 -10 2 0 4 5 4 10 0 6 -5 10 -11 10 -5 0 -7
-4 -4 -10z"/>
<path d="M724 559 c-3 -6 -2 -15 4 -21 13 -13 32 -2 32 18 0 16 -26 19 -36 3z"/>
<path d="M586 334 c-8 -21 1 -34 22 -33 11 0 12 3 5 6 -7 2 -13 12 -13 20 0 9
6 13 15 9 8 -3 15 -1 15 4 0 16 -37 11 -44 -6z"/>
<path d="M860 335 c0 -8 8 -15 18 -15 14 0 15 -2 2 -10 -13 -8 -13 -10 2 -10
23 0 33 19 14 26 -9 3 -13 10 -10 15 3 5 -2 9 -10 9 -9 0 -16 -7 -16 -15z"/>
<path d="M658 311 c-8 -29 -3 -41 20 -41 11 0 13 3 6 8 -7 4 -14 18 -16 32
l-3 25 -7 -24z"/>
<path d="M795 320 c-3 -6 1 -13 10 -16 12 -5 13 -9 5 -14 -7 -4 -8 -10 -3 -13
5 -3 15 -1 23 4 13 8 12 11 -3 23 -14 11 -15 15 -5 19 9 4 7 6 -4 6 -9 1 -20
-4 -23 -9z"/>
<path d="M731 302 c-16 -30 -14 -37 14 -37 20 0 24 4 19 20 -10 33 -21 38 -33
17z"/>
</g>
</svg>
